<?xml version="1.0" standalone="no"?>
<!DOCTYPE svg PUBLIC "-//W3C//DTD SVG 20010904//EN"
 "http://www.w3.org/TR/2001/REC-SVG-20010904/DTD/svg10.dtd">
<svg version="1.0" xmlns="http://www.w3.org/2000/svg"
 width="300.000000pt" height="200.000000pt" viewBox="0 0 300.000000 200.000000"
 preserveAspectRatio="xMidYMid meet">
<metadata>
Created by potrace 1.10, written by Peter Selinger 2001-2011
</metadata>
<g transform="translate(0.000000,200.000000) scale(0.050000,-0.050000)"
fill="#000000" stroke="none">
<path d="M425 3400 c-59 -36 -120 -132 -97 -154 4 -5 14 9 21 31 7 23 31 47
54 54 23 7 58 30 79 51 69 69 41 78 -57 18z"/>
<path d="M664 3381 c27 -43 115 -89 134 -70 15 16 -99 109 -133 109 -20 0 -20
-8 -1 -39z"/>
<path d="M480 3229 c-27 -70 -26 -78 17 -116 82 -74 190 -5 160 102 -25 88
-146 97 -177 14z"/>
<path d="M301 3149 c-1 -34 12 -79 28 -100 28 -37 30 -36 30 22 1 34 -12 79
-28 100 -28 37 -30 36 -30 -22z"/>
<path d="M785 3140 c-14 -22 -25 -53 -25 -71 0 -67 -95 -140 -155 -118 -68 24
-150 14 -139 -18 39 -112 337 36 366 182 15 73 -9 86 -47 25z"/>
<path d="M1480 3024 c0 -9 -29 -24 -64 -35 -71 -21 -118 -123 -70 -153 58 -37
214 5 214 57 0 15 18 27 41 27 73 0 11 -68 -90 -98 -51 -15 -90 -35 -86 -46 7
-23 7 -23 152 -6 154 18 347 -92 653 -370 44 -40 118 -98 165 -129 47 -31 85
-64 85 -74 0 -30 -134 -18 -161 14 -15 18 -33 23 -43 13 -23 -23 -116 -6 -116
20 0 11 12 16 26 10 14 -5 42 3 63 18 56 41 -10 60 -89 25 -65 -28 -84 -134
-22 -121 18 4 24 -7 17 -34 -12 -45 25 -67 67 -40 52 33 66 18 21 -23 -45 -43
-42 -79 8 -79 16 0 29 -14 29 -32 0 -20 -11 -28 -29 -21 -17 6 -35 3 -42 -8
-52 -85 -500 85 -703 267 -39 35 -49 36 -80 12 -33 -26 -34 -25 -8 7 24 31 23
41 -5 72 -18 20 -33 61 -33 91 0 72 -59 172 -102 172 -19 0 -38 12 -44 27 -19
49 -166 35 -217 -21 -40 -42 -42 -53 -19 -90 18 -29 19 -45 4 -55 -20 -12 55
-78 180 -161 25 -16 112 -91 194 -166 261 -239 607 -434 769 -434 14 0 138
-56 275 -125 138 -69 297 -142 355 -161 78 -26 118 -54 150 -105 50 -77 67
-82 116 -38 43 39 133 20 149 -32 7 -21 33 -54 58 -74 25 -20 69 -72 96 -115
88 -137 411 -390 498 -390 29 0 92 -14 140 -31 49 -17 190 -41 315 -52 170
-16 252 -33 323 -69 53 -26 101 -48 108 -48 6 0 53 -31 103 -70 148 -112 223
-32 97 104 -28 31 -45 45 -38 31 7 -15 0 -25 -18 -25 -39 0 -59 34 -27 47 14
5 -16 11 -66 11 -104 2 -139 28 -139 101 1 40 5 45 20 21 17 -26 23 -26 38 -2
26 40 -18 102 -72 102 -45 0 -80 -32 -48 -43 11 -4 24 -34 30 -67 l11 -60 -23
53 c-19 46 -36 54 -135 61 -69 5 -152 28 -212 59 -55 28 -133 58 -174 65 l-76
14 12 -86 c11 -77 9 -82 -17 -50 -16 19 -38 33 -48 30 -10 -3 -42 20 -70 53
-48 55 -54 57 -114 32 -88 -37 -93 -21 -31 100 33 67 58 96 68 81 16 -27 37
-7 79 72 21 41 13 50 -107 120 -72 42 -130 83 -131 92 0 35 149 76 256 72 83
-4 113 2 119 23 26 97 51 117 163 130 62 8 142 26 179 41 38 16 101 28 140 28
40 0 114 13 164 28 169 51 408 41 559 -23 213 -90 324 -45 227 93 -112 161
-1037 167 -1283 9 -35 -22 -41 -36 -26 -55 12 -14 16 -32 8 -39 -30 -30 -46
-8 -46 65 l0 77 -105 13 c-127 16 -334 20 -347 7 -25 -26 -294 47 -351 94 -33
28 -70 51 -82 51 -22 0 -245 166 -285 212 -11 12 -63 51 -115 86 -52 35 -95
72 -95 81 0 10 -61 65 -135 124 -74 58 -175 140 -225 181 -49 41 -144 103
-210 138 -66 34 -133 74 -150 87 -52 42 -180 94 -201 81 -11 -7 -18 -1 -14 14
10 48 -45 27 -85 -34 -25 -37 -40 -48 -40 -28 0 18 18 53 40 78 38 44 38 48 5
70 -75 51 -225 87 -225 54z m-285 -582 c-7 -27 3 -32 60 -25 58 7 67 14 58 50
-11 42 -10 42 18 4 38 -51 37 -71 -6 -72 -19 0 -57 -13 -84 -28 -52 -28 -109
-20 -88 13 6 11 -7 10 -31 -3 -43 -23 -62 4 -21 30 12 7 16 28 9 46 -10 26 -7
28 13 8 35 -35 64 -31 49 6 -7 19 -3 26 10 18 12 -8 18 -29 13 -47z m1413
-292 c21 -16 47 -23 58 -16 11 7 14 2 7 -9 -8 -12 4 -28 26 -35 21 -6 73 -44
115 -82 96 -89 258 -196 336 -222 41 -14 58 -31 54 -56 -6 -27 3 -33 40 -26
32 6 59 -7 90 -45 l44 -53 -47 -65 c-26 -35 -85 -91 -129 -124 -45 -33 -82
-73 -82 -89 0 -37 -19 -35 -63 5 -57 51 -45 76 53 105 99 29 132 102 46 102
-24 0 -67 20 -95 45 l-51 45 45 -51 c46 -53 60 -91 25 -69 -11 7 -20 2 -20
-10 0 -12 -9 -17 -20 -10 -12 7 -16 20 -11 28 13 21 -116 139 -249 228 -61 41
-122 100 -137 133 -40 91 -117 59 -81 -33 13 -35 12 -44 -5 -34 -13 8 -35 -2
-50 -22 -22 -31 -34 -33 -78 -13 -28 12 -73 23 -100 23 -37 0 -49 11 -49 44 0
33 6 38 23 21 15 -15 38 -16 72 -3 34 13 59 12 77 -4 34 -27 36 -10 6 45 -16
30 -34 37 -68 29 -65 -17 -78 13 -18 41 26 13 48 16 48 7 0 -9 14 -21 31 -28
26 -9 28 1 17 63 -7 41 -14 84 -15 95 -2 11 17 17 42 14 25 -4 45 1 43 10 -9
53 14 58 70 16z m72 -400 c0 -17 36 -70 80 -118 95 -103 103 -131 20 -72 -96
69 -193 220 -141 220 23 0 41 -13 41 -30z m2620 -40 c21 -25 17 -30 -28 -30
-28 0 -52 10 -52 21 0 12 -10 15 -23 7 -14 -9 -18 -5 -9 9 20 32 82 29 112 -7z
m-910 -30 c30 -33 31 -44 9 -71 -25 -30 -29 -30 -51 0 -13 19 -50 41 -81 51
l-57 17 66 1 c39 1 61 10 54 22 -22 36 23 21 60 -20z m-822 -188 c-6 -23 -34
-76 -60 -117 -26 -41 -48 -83 -48 -95 0 -11 -9 -20 -20 -20 -28 0 -25 14 18
97 22 40 44 96 50 125 6 28 25 51 42 51 22 0 27 -12 18 -41z m64 -464 c-7 -17
-13 -46 -14 -65 -1 -20 -8 -13 -18 17 -11 33 -17 38 -18 15 -1 -19 -9 -35 -19
-35 -24 0 -21 68 5 85 40 26 77 17 64 -17z"/>
<path d="M2890 1844 c99 -99 186 -176 195 -171 16 10 -314 332 -352 344 -13 4
58 -74 157 -173z"/>
<path d="M2114 2340 c-6 -22 -3 -40 5 -40 8 0 31 18 51 40 35 39 35 40 -5 40
-24 0 -45 -17 -51 -40z"/>
</g>
</svg>
