<?xml version="1.0" standalone="no"?>
<!DOCTYPE svg PUBLIC "-//W3C//DTD SVG 20010904//EN"
 "http://www.w3.org/TR/2001/REC-SVG-20010904/DTD/svg10.dtd">
<svg version="1.0" xmlns="http://www.w3.org/2000/svg"
 width="300.000000pt" height="296.000000pt" viewBox="0 0 300.000000 296.000000"
 preserveAspectRatio="xMidYMid meet">
<metadata>
Created by potrace 1.10, written by Peter Selinger 2001-2011
</metadata>
<g transform="translate(0.000000,296.000000) scale(0.050000,-0.050000)"
fill="#000000" stroke="none">
<path d="M3275 5898 c41 -43 28 -63 -19 -29 -117 81 -351 -9 -403 -155 -12
-33 -9 -34 32 -5 62 44 108 39 186 -21 38 -29 81 -48 97 -42 15 6 44 -6 63
-27 33 -37 32 -37 -34 -17 -37 12 -83 26 -102 32 -19 6 -51 -2 -70 -17 -31
-24 -32 -23 -10 5 59 75 -25 127 -109 68 -85 -60 -153 -452 -72 -421 14 5 26
-3 26 -18 0 -16 16 -32 35 -37 33 -9 33 -9 0 -12 -107 -7 134 -262 248 -262
75 0 78 3 134 127 32 70 68 134 81 141 48 30 26 117 -27 107 -28 -5 -45 -2
-39 8 6 9 27 17 48 17 56 0 95 50 111 144 8 47 26 104 42 127 29 45 1 180 -33
159 -8 -5 -30 13 -48 40 -18 27 -62 64 -97 82 -42 21 -56 23 -40 6z"/>
<path d="M5273 5488 c-54 -28 -91 -42 -84 -30 7 12 8 31 1 43 -19 30 -82 -59
-99 -141 -24 -113 -55 -145 -330 -340 -144 -102 -289 -216 -321 -254 -33 -37
-60 -60 -60 -52 0 32 -304 28 -353 -4 -63 -41 -227 -268 -227 -314 0 -45 56
-46 318 -7 105 16 236 34 291 42 85 11 115 28 226 136 157 150 632 667 643
699 15 44 71 74 117 63 25 -5 45 -1 45 11 0 11 -11 20 -25 20 -17 1 -15 7 5
20 25 16 25 23 3 37 -20 13 -15 21 20 30 36 10 41 17 19 31 -15 10 -21 28 -13
40 25 40 -76 24 -176 -30z"/>
<path d="M2774 5167 l-55 -77 53 -47 c36 -31 58 -39 68 -24 9 16 21 14 39 -8
14 -17 40 -31 57 -31 17 0 26 -5 20 -11 -56 -56 -281 87 -240 152 23 37 19 38
-131 27 -188 -14 -310 -43 -294 -69 6 -10 -5 -19 -25 -19 -20 0 -119 -28 -221
-63 -178 -61 -231 -97 -144 -97 55 0 133 -88 149 -167 23 -112 31 -130 66
-139 24 -7 21 -10 -11 -12 -25 -1 -45 -13 -45 -25 0 -13 -15 -40 -33 -61 -39
-42 28 -36 183 18 59 20 73 21 55 3 -50 -50 -31 -233 30 -291 38 -36 44 -48
18 -39 -20 7 -40 13 -46 13 -5 0 -20 26 -33 58 l-25 58 -63 -117 c-50 -92 -56
-115 -30 -107 22 7 19 1 -8 -16 -71 -44 -256 -214 -246 -225 6 -5 73 12 149
39 132 47 533 77 419 31 -40 -16 -40 -16 0 -27 22 -6 4 -5 -40 2 -465 79 -779
-259 -592 -636 44 -88 44 -89 2 -40 l-43 50 13 -80 c7 -44 45 -138 85 -210 39
-71 102 -188 140 -260 40 -77 80 -129 98 -127 25 2 24 -3 -3 -33 -41 -45 -4
-75 46 -37 31 24 30 22 -1 -15 -145 -170 39 -135 229 45 130 123 136 124 296
57 139 -59 198 -66 160 -20 -13 16 -46 103 -72 193 -56 191 -38 168 -140 184
-82 12 -82 12 -106 -69 -30 -99 -46 -95 -23 6 17 78 -63 133 -200 138 -27 0
-38 6 -24 11 14 6 20 19 14 29 -15 24 -6 23 75 -11 86 -36 559 -131 651 -131
l67 0 -36 63 c-20 34 -63 79 -96 100 -33 20 -51 37 -40 37 44 0 152 -83 170
-130 19 -51 49 -64 69 -32 6 10 0 23 -14 29 -14 5 -5 11 20 11 51 2 53 9 25
63 -16 29 -15 36 6 28 51 -20 78 127 33 172 -22 22 -49 39 -62 39 -13 0 -18 5
-12 12 7 7 40 -2 74 -19 59 -29 63 -28 93 18 36 54 141 124 223 149 l55 16
-86 35 c-47 20 -76 41 -65 48 13 8 9 29 -10 57 -42 59 -125 57 -249 -6 -54
-27 -110 -50 -124 -49 -14 1 7 15 48 32 92 38 83 65 -46 149 -105 66 -158 127
-158 177 0 17 17 3 38 -31 38 -62 133 -148 164 -148 9 0 13 74 9 165 -3 91 -3
129 2 85 18 -191 27 -190 96 2 88 245 250 470 338 467 12 0 5 -10 -17 -22 -43
-24 -109 -97 -110 -122 0 -8 77 -15 170 -15 164 0 170 2 170 46 0 46 70 141
228 312 l82 87 -145 -11 c-80 -7 -145 -4 -145 6 0 9 -47 32 -105 51 -58 20
-163 72 -233 116 l-129 81 -29 -44 c-16 -24 -46 -44 -66 -44 -49 0 -49 -34 0
-49 21 -7 48 -24 59 -38 12 -13 -44 7 -123 46 -79 39 -137 74 -128 78 8 4 -22
40 -67 80 -53 46 -87 97 -96 140 l-13 67 -56 -77z m-203 -541 l77 -96 -112
100 c-113 101 -146 147 -79 112 20 -11 71 -63 114 -116z m785 -991 c-15 -14
-50 -38 -77 -53 -27 -15 -71 -42 -99 -59 -73 -44 -24 2 78 74 87 62 151 87 98
38z m-339 -205 c-29 -16 -92 -34 -140 -39 -84 -11 -83 -10 19 16 58 15 111 33
118 40 7 7 22 13 34 12 12 0 -2 -13 -31 -29z m-457 -140 c-31 -37 -12 -90 33
-90 18 0 29 -5 23 -11 -26 -26 -113 15 -102 48 14 39 47 83 61 83 5 0 -1 -13
-15 -30z"/>
<path d="M1740 4833 c-244 -102 -272 -139 -132 -176 67 -17 21 -12 -143 16
-80 14 -207 -26 -485 -153 -307 -140 -383 -161 -660 -183 -137 -11 -263 -24
-279 -30 -54 -17 21 -46 119 -47 l90 0 -128 -61 c-90 -42 -122 -67 -107 -82
14 -14 34 -14 64 2 100 54 199 80 188 50 -6 -16 -1 -29 12 -29 15 0 8 -27 -19
-70 -53 -85 -37 -89 52 -11 66 58 177 101 262 101 25 0 74 14 110 30 36 17
262 65 501 108 273 49 456 91 490 114 30 19 73 38 95 40 225 25 301 107 252
269 -43 142 -128 176 -282 112z"/>
<path d="M152 4102 c-31 -33 -47 -63 -35 -70 25 -16 147 86 132 110 -18 29
-38 21 -97 -40z"/>
<path d="M5402 3558 c-515 -156 -411 -918 125 -918 500 0 652 675 200 890 -87
41 -239 54 -325 28z"/>
<path d="M3459 3425 c-363 -184 -266 -671 122 -619 45 6 77 5 70 -2 -39 -39
141 -56 203 -20 51 30 73 34 105 16 50 -26 53 -7 6 48 -19 23 -1 12 41 -23 76
-66 173 -83 288 -53 43 12 43 13 -15 62 -33 27 -55 57 -49 66 20 33 -15 77
-131 168 -66 51 -151 137 -191 192 -82 114 -158 148 -201 89 -15 -20 -27 -26
-27 -14 0 13 19 36 42 52 42 30 42 30 -19 61 -84 44 -119 41 -244 -23z"/>
<path d="M3805 2735 c-79 -55 -81 -70 -10 -81 47 -7 44 -8 -16 -11 -208 -9
-128 -337 86 -356 48 -4 96 -22 109 -40 21 -28 29 -29 58 -5 19 15 56 25 83
21 36 -5 45 1 34 19 -9 14 17 0 58 -31 40 -31 73 -66 73 -78 0 -13 28 -36 63
-51 34 -15 67 -45 72 -66 6 -21 25 -36 43 -34 43 5 107 -23 134 -59 14 -19 32
-23 50 -12 34 21 119 13 153 -15 15 -13 35 -14 50 -3 14 10 52 21 85 24 229
21 251 251 44 454 -263 256 -521 392 -655 346 -55 -20 -191 -15 -379 12 -52 8
-87 -1 -135 -34z m273 -170 c76 -27 110 -27 255 -5 151 24 358 4 323 -31 -4
-4 -41 2 -82 15 -56 17 -113 16 -240 -3 -171 -27 -300 -7 -394 61 -24 18 -22
19 10 8 22 -8 79 -28 128 -45z"/>
<path d="M2367 2519 c-75 -68 -160 -127 -193 -133 -55 -11 -57 -14 -24 -38 20
-15 43 -23 51 -18 16 10 79 -110 79 -151 0 -39 81 42 112 111 17 40 27 48 27
24 1 -53 -36 -117 -97 -167 l-52 -44 60 -65 60 -66 -74 63 c-66 56 -82 61
-140 44 -36 -11 -93 -19 -126 -19 -133 -1 -530 -280 -530 -373 0 -16 -7 -25
-16 -20 -9 6 -114 -29 -234 -77 -211 -85 -223 -88 -375 -76 -201 15 -261 -10
-243 -105 7 -39 3 -70 -11 -78 -14 -9 -16 -23 -5 -38 44 -56 59 -145 34 -193
-14 -26 -26 -82 -26 -124 -1 -41 -7 -84 -13 -94 -6 -11 7 -51 30 -90 23 -39
37 -80 30 -90 -18 -30 108 -91 134 -65 11 11 33 95 48 187 21 122 45 189 89
253 34 49 55 101 49 118 -9 23 -6 25 14 9 18 -15 36 -13 63 7 21 15 95 47 165
70 112 37 127 49 130 96 l2 53 9 -50 c16 -87 32 -85 463 61 404 137 423 146
425 196 2 34 6 41 12 18 5 -19 13 -35 18 -35 28 0 168 84 168 100 0 11 9 20
20 20 62 0 239 145 280 230 38 79 33 549 -6 559 -2 1 -56 26 -119 56 -149 71
-133 74 -288 -66z"/>
</g>
</svg>
